<svg width="25" height="25" viewBox="0 0 25 25" fill="none" xmlns="http://www.w3.org/2000/svg">
<path d="M1.38873 8.41109C0.960048 8.79476 0.923568 9.45329 1.30725 9.88197C1.69091 10.3106 2.34945 10.3471 2.77812 9.96345L1.38873 8.41109ZM22.2221 9.96345C22.6507 10.3471 23.3093 10.3106 23.6929 9.88197C24.0767 9.45329 24.0401 8.79476 23.6114 8.41109L22.2221 9.96345ZM12.5001 19.792C11.9248 19.792 11.4584 20.2583 11.4584 20.8337C11.4584 21.409 11.9248 21.8753 12.5001 21.8753V19.792ZM12.5105 21.8753C13.0858 21.8753 13.5522 21.409 13.5522 20.8337C13.5522 20.2583 13.0858 19.792 12.5105 19.792V21.8753ZM15.3027 17.7503C15.7282 18.1374 16.3871 18.1063 16.7742 17.6807C17.1613 17.2551 17.1301 16.5964 16.7046 16.2092L15.3027 17.7503ZM18.8062 13.8965C19.2318 14.2836 19.8906 14.2524 20.2777 13.8268C20.6648 13.4013 20.6336 12.7424 20.2081 12.3553L18.8062 13.8965ZM8.29563 16.2092C7.87006 16.5964 7.83888 17.2551 8.226 17.6807C8.61311 18.1063 9.27191 18.1374 9.69749 17.7503L8.29563 16.2092ZM4.79211 12.3553C4.36654 12.7424 4.33535 13.4013 4.72246 13.8268C5.10958 14.2524 5.76838 14.2836 6.19395 13.8965L4.79211 12.3553ZM2.77812 9.96345C5.35888 7.65362 8.76437 6.25033 12.5001 6.25033V4.16699C8.23212 4.16699 4.33667 5.7726 1.38873 8.41109L2.77812 9.96345ZM12.5001 6.25033C16.2358 6.25033 19.6413 7.65362 22.2221 9.96345L23.6114 8.41109C20.6635 5.7726 16.768 4.16699 12.5001 4.16699V6.25033ZM12.5001 21.8753H12.5105V19.792H12.5001V21.8753ZM12.5001 16.667C13.58 16.667 14.5619 17.0765 15.3027 17.7503L16.7046 16.2092C15.5952 15.2001 14.1184 14.5837 12.5001 14.5837V16.667ZM12.5001 11.4587C14.9292 11.4587 17.1403 12.3811 18.8062 13.8965L20.2081 12.3553C18.1736 10.5047 15.4675 9.37533 12.5001 9.37533V11.4587ZM9.69749 17.7503C10.4383 17.0765 11.4202 16.667 12.5001 16.667V14.5837C10.8818 14.5837 9.40501 15.2001 8.29563 16.2092L9.69749 17.7503ZM6.19395 13.8965C7.85992 12.3811 10.0711 11.4587 12.5001 11.4587V9.37533C9.53266 9.37533 6.82659 10.5047 4.79211 12.3553L6.19395 13.8965Z" fill="#17BDD3"/>
</svg>
