<svg width="30" height="30" viewBox="0 0 30 30" fill="none" xmlns="http://www.w3.org/2000/svg">
<path d="M21.25 15C21.25 13.7639 20.8834 12.5555 20.1967 11.5277C19.5099 10.4999 18.5338 9.6988 17.3918 9.22575C16.2497 8.75271 14.9931 8.62893 13.7807 8.87009C12.5683 9.11125 11.4547 9.7065 10.5806 10.5806C9.7065 11.4547 9.11125 12.5683 8.87009 13.7807C8.62893 14.9931 8.75271 16.2497 9.22575 17.3918C9.6988 18.5338 10.4999 19.5099 11.5277 20.1967C12.5555 20.8834 13.7639 21.25 15 21.25C16.657 21.248 18.2456 20.5889 19.4172 19.4172C20.5889 18.2456 21.248 16.657 21.25 15ZM15 18.75C14.2583 18.75 13.5333 18.5301 12.9166 18.118C12.2999 17.706 11.8193 17.1203 11.5355 16.4351C11.2516 15.7498 11.1774 14.9958 11.3221 14.2684C11.4667 13.541 11.8239 12.8728 12.3483 12.3483C12.8728 11.8239 13.541 11.4667 14.2684 11.3221C14.9958 11.1774 15.7498 11.2516 16.4351 11.5355C17.1203 11.8193 17.706 12.2999 18.118 12.9166C18.5301 13.5333 18.75 14.2583 18.75 15C18.75 15.9946 18.3549 16.9484 17.6517 17.6517C16.9484 18.3549 15.9946 18.75 15 18.75ZM13.75 5V2.5C13.75 2.16848 13.8817 1.85054 14.1161 1.61612C14.3505 1.3817 14.6685 1.25 15 1.25C15.3315 1.25 15.6495 1.3817 15.8839 1.61612C16.1183 1.85054 16.25 2.16848 16.25 2.5V5C16.25 5.33152 16.1183 5.64946 15.8839 5.88388C15.6495 6.1183 15.3315 6.25 15 6.25C14.6685 6.25 14.3505 6.1183 14.1161 5.88388C13.8817 5.64946 13.75 5.33152 13.75 5ZM15 23.75C15.3315 23.75 15.6495 23.8817 15.8839 24.1161C16.1183 24.3505 16.25 24.6685 16.25 25V27.5C16.25 27.8315 16.1183 28.1495 15.8839 28.3839C15.6495 28.6183 15.3315 28.75 15 28.75C14.6685 28.75 14.3505 28.6183 14.1161 28.3839C13.8817 28.1495 13.75 27.8315 13.75 27.5V25C13.75 24.6685 13.8817 24.3505 14.1161 24.1161C14.3505 23.8817 14.6685 23.75 15 23.75ZM24.7225 7.045L22.955 8.8125C22.7192 9.0402 22.4035 9.16619 22.0757 9.16334C21.748 9.16049 21.4345 9.02903 21.2027 8.79727C20.971 8.56551 20.8395 8.252 20.8367 7.92425C20.8338 7.59651 20.9598 7.28075 21.1875 7.045L22.955 5.2775C23.1908 5.0498 23.5065 4.92381 23.8343 4.92666C24.162 4.92951 24.4755 5.06097 24.7073 5.29273C24.939 5.52449 25.0705 5.838 25.0733 6.16575C25.0762 6.49349 24.9502 6.80925 24.7225 7.045ZM5.2775 22.955L7.045 21.1875C7.28075 20.9598 7.59651 20.8338 7.92425 20.8367C8.252 20.8395 8.56551 20.971 8.79727 21.2027C9.02903 21.4345 9.16049 21.748 9.16334 22.0757C9.16619 22.4035 9.0402 22.7192 8.8125 22.955L7.045 24.7225C6.80925 24.9502 6.49349 25.0762 6.16575 25.0733C5.838 25.0705 5.52449 24.939 5.29273 24.7073C5.06097 24.4755 4.92951 24.162 4.92666 23.8343C4.92381 23.5065 5.0498 23.1908 5.2775 22.955ZM28.75 15C28.75 15.3315 28.6183 15.6495 28.3839 15.8839C28.1495 16.1183 27.8315 16.25 27.5 16.25H25C24.6685 16.25 24.3505 16.1183 24.1161 15.8839C23.8817 15.6495 23.75 15.3315 23.75 15C23.75 14.6685 23.8817 14.3505 24.1161 14.1161C24.3505 13.8817 24.6685 13.75 25 13.75H27.5C27.8315 13.75 28.1495 13.8817 28.3839 14.1161C28.6183 14.3505 28.75 14.6685 28.75 15ZM2.5 16.25C2.16848 16.25 1.85054 16.1183 1.61612 15.8839C1.3817 15.6495 1.25 15.3315 1.25 15C1.25 14.6685 1.3817 14.3505 1.61612 14.1161C1.85054 13.8817 2.16848 13.75 2.5 13.75H5C5.33152 13.75 5.64946 13.8817 5.88388 14.1161C6.1183 14.3505 6.25 14.6685 6.25 15C6.25 15.3315 6.1183 15.6495 5.88388 15.8839C5.64946 16.1183 5.33152 16.25 5 16.25H2.5ZM21.1875 22.955C20.9598 22.7192 20.8338 22.4035 20.8367 22.0757C20.8395 21.748 20.971 21.4345 21.2027 21.2027C21.4345 20.971 21.748 20.8395 22.0757 20.8367C22.4035 20.8338 22.7192 20.9598 22.955 21.1875L24.7225 22.955C24.8419 23.0703 24.9371 23.2082 25.0026 23.3607C25.0681 23.5132 25.1026 23.6773 25.1041 23.8432C25.1055 24.0092 25.0739 24.1738 25.011 24.3274C24.9482 24.4811 24.8554 24.6206 24.738 24.738C24.6206 24.8554 24.4811 24.9482 24.3274 25.011C24.1738 25.0739 24.0092 25.1055 23.8432 25.1041C23.6773 25.1026 23.5132 25.0681 23.3607 25.0026C23.2082 24.9371 23.0703 24.8419 22.955 24.7225L21.1875 22.955ZM5.2775 7.045C5.0498 6.80925 4.92381 6.49349 4.92666 6.16575C4.92951 5.838 5.06097 5.52449 5.29273 5.29273C5.52449 5.06097 5.838 4.92951 6.16575 4.92666C6.49349 4.92381 6.80925 5.0498 7.045 5.2775L8.8125 7.045C8.93189 7.16031 9.02712 7.29824 9.09263 7.45074C9.15814 7.60325 9.19262 7.76727 9.19406 7.93325C9.19551 8.09922 9.16388 8.26382 9.10103 8.41744C9.03818 8.57106 8.94536 8.71063 8.82799 8.82799C8.71063 8.94536 8.57106 9.03818 8.41744 9.10103C8.26382 9.16388 8.09922 9.19551 7.93325 9.19406C7.76727 9.19262 7.60325 9.15814 7.45074 9.09263C7.29824 9.02712 7.16031 8.93189 7.045 8.8125L5.2775 7.045Z" fill="black"/>
</svg>
