<svg width="22" height="22" viewBox="0 0 22 22" fill="none" xmlns="http://www.w3.org/2000/svg">
<path fill-rule="evenodd" clip-rule="evenodd" d="M6 3C6 2.44771 6.4477 2 7 2C7.5523 2 8 2.44771 8 3C8 3.55228 7.5523 4 7 4C6.4477 4 6 3.55228 6 3Z" fill="#4285F4"/>
<path fill-rule="evenodd" clip-rule="evenodd" d="M10 5.82385V3.488C10 2.86143 9.9671 2.32381 9.86725 1.87457C9.76615 1.41966 9.5899 1.02533 9.2823 0.717715C8.9747 0.410105 8.58035 0.23386 8.1254 0.13276C7.6762 0.03292 7.13855 0 6.512 0H3.488C2.86143 0 2.32381 0.03292 1.87457 0.13276C1.41966 0.23386 1.02533 0.410105 0.717715 0.717715C0.410105 1.02533 0.23386 1.41966 0.13276 1.87457C0.03292 2.32381 0 2.86143 0 3.488V6.512C0 7.13855 0.03292 7.6762 0.13276 8.1254C0.23386 8.58035 0.410105 8.9747 0.717715 9.2823C1.02533 9.5899 1.41966 9.76615 1.87457 9.86725C2.32381 9.9671 2.86143 10 3.488 10H6.512C7.13855 10 7.6762 9.9671 8.1254 9.86725C8.58035 9.76615 8.9747 9.5899 9.2823 9.2823C9.5899 8.9747 9.76615 8.58035 9.86725 8.1254C9.9671 7.6762 10 7.13855 10 6.512V5.8471C10.0002 5.83935 10.0002 5.8316 10 5.82385ZM1.10894 2.09153C1.033 2.43323 1 2.88425 1 3.488V4.548C1.35994 4.2019 1.695 3.91874 2.01947 3.71227C2.41263 3.46209 2.8161 3.30787 3.25112 3.30787C3.68615 3.30787 4.0896 3.46209 4.4828 3.71227C4.87105 3.95933 5.27445 4.3162 5.7175 4.75925L6.53015 5.5719C7.0218 5.1666 7.5039 4.88675 8.0228 4.8221C8.3646 4.7795 8.68695 4.83365 9 4.9599V3.488C9 2.88425 8.967 2.43323 8.89105 2.09153C8.8164 1.75551 8.707 1.55663 8.5752 1.42482C8.44335 1.29301 8.2445 1.18362 7.90845 1.10894C7.5668 1.033 7.11575 1 6.512 1H3.488C2.88425 1 2.43323 1.033 2.09153 1.10894C1.75551 1.18362 1.55663 1.29301 1.42482 1.42482C1.29301 1.55663 1.18362 1.75551 1.10894 2.09153Z" fill="#4285F4"/>
<path fill-rule="evenodd" clip-rule="evenodd" d="M6 15C6 14.4477 6.4477 14 7 14C7.5523 14 8 14.4477 8 15C8 15.5523 7.5523 16 7 16C6.4477 16 6 15.5523 6 15Z" fill="#EA4335"/>
<path fill-rule="evenodd" clip-rule="evenodd" d="M10 17.8239V15.488C10 14.8614 9.9671 14.3238 9.86725 13.8746C9.76615 13.4197 9.5899 13.0253 9.2823 12.7177C8.9747 12.4101 8.58035 12.2339 8.1254 12.1328C7.6762 12.0329 7.13855 12 6.512 12H3.488C2.86143 12 2.32381 12.0329 1.87457 12.1328C1.41966 12.2339 1.02533 12.4101 0.717715 12.7177C0.410105 13.0253 0.23386 13.4197 0.13276 13.8746C0.03292 14.3238 0 14.8614 0 15.488V18.512C0 19.1386 0.03292 19.6762 0.13276 20.1254C0.23386 20.5803 0.410105 20.9747 0.717715 21.2823C1.02533 21.5899 1.41966 21.7662 1.87457 21.8673C2.32381 21.9671 2.86143 22 3.488 22H6.512C7.13855 22 7.6762 21.9671 8.1254 21.8673C8.58035 21.7662 8.9747 21.5899 9.2823 21.2823C9.5899 20.9747 9.76615 20.5803 9.86725 20.1254C9.9671 19.6762 10 19.1386 10 18.512V17.8471C10.0002 17.8393 10.0002 17.8316 10 17.8239ZM1.10894 14.0915C1.033 14.4332 1 14.8843 1 15.488V16.548C1.35994 16.2019 1.695 15.9187 2.01947 15.7123C2.41263 15.4621 2.8161 15.3079 3.25112 15.3079C3.68615 15.3079 4.0896 15.4621 4.4828 15.7123C4.87105 15.9593 5.27445 16.3162 5.7175 16.7593L6.53015 17.5719C7.0218 17.1666 7.5039 16.8868 8.0228 16.8221C8.3646 16.7795 8.68695 16.8337 9 16.9599V15.488C9 14.8843 8.967 14.4332 8.89105 14.0915C8.8164 13.7555 8.707 13.5566 8.5752 13.4248C8.44335 13.293 8.2445 13.1836 7.90845 13.1089C7.5668 13.033 7.11575 13 6.512 13H3.488C2.88425 13 2.43323 13.033 2.09153 13.1089C1.75551 13.1836 1.55663 13.293 1.42482 13.4248C1.29301 13.5566 1.18362 13.7555 1.10894 14.0915Z" fill="#EA4335"/>
<path fill-rule="evenodd" clip-rule="evenodd" d="M18 3C18 2.44771 18.4477 2 19 2C19.5523 2 20 2.44771 20 3C20 3.55228 19.5523 4 19 4C18.4477 4 18 3.55228 18 3Z" fill="#FBBC05"/>
<path fill-rule="evenodd" clip-rule="evenodd" d="M22 5.82385V3.488C22 2.86143 21.9671 2.32381 21.8673 1.87457C21.7662 1.41966 21.5899 1.02533 21.2823 0.717715C20.9747 0.410105 20.5803 0.23386 20.1254 0.13276C19.6762 0.03292 19.1386 0 18.512 0H15.488C14.8614 0 14.3238 0.03292 13.8746 0.13276C13.4197 0.23386 13.0253 0.410105 12.7177 0.717715C12.4101 1.02533 12.2339 1.41966 12.1328 1.87457C12.0329 2.32381 12 2.86143 12 3.488V6.512C12 7.13855 12.0329 7.6762 12.1328 8.1254C12.2339 8.58035 12.4101 8.9747 12.7177 9.2823C13.0253 9.5899 13.4197 9.76615 13.8746 9.86725C14.3238 9.9671 14.8614 10 15.488 10H18.512C19.1386 10 19.6762 9.9671 20.1254 9.86725C20.5803 9.76615 20.9747 9.5899 21.2823 9.2823C21.5899 8.9747 21.7662 8.58035 21.8673 8.1254C21.9671 7.6762 22 7.13855 22 6.512V5.8471C22.0002 5.83935 22.0002 5.8316 22 5.82385ZM13.1089 2.09153C13.033 2.43323 13 2.88425 13 3.488V4.548C13.3599 4.2019 13.695 3.91874 14.0195 3.71227C14.4126 3.46209 14.8161 3.30787 15.2511 3.30787C15.6861 3.30787 16.0896 3.46209 16.4828 3.71227C16.871 3.95933 17.2745 4.3162 17.7175 4.75925L18.5301 5.5719C19.0218 5.1666 19.5039 4.88675 20.0228 4.8221C20.3646 4.7795 20.6869 4.83365 21 4.9599V3.488C21 2.88425 20.967 2.43323 20.8911 2.09153C20.8164 1.75551 20.707 1.55663 20.5752 1.42482C20.4433 1.29301 20.2445 1.18362 19.9085 1.10894C19.5668 1.033 19.1158 1 18.512 1H15.488C14.8843 1 14.4332 1.033 14.0915 1.10894C13.7555 1.18362 13.5566 1.29301 13.4248 1.42482C13.293 1.55663 13.1836 1.75551 13.1089 2.09153Z" fill="#FBBC05"/>
<path fill-rule="evenodd" clip-rule="evenodd" d="M18 15C18 14.4477 18.4477 14 19 14C19.5523 14 20 14.4477 20 15C20 15.5523 19.5523 16 19 16C18.4477 16 18 15.5523 18 15Z" fill="#34A853"/>
<path fill-rule="evenodd" clip-rule="evenodd" d="M22 17.8239V15.488C22 14.8614 21.9671 14.3238 21.8673 13.8746C21.7662 13.4197 21.5899 13.0253 21.2823 12.7177C20.9747 12.4101 20.5803 12.2339 20.1254 12.1328C19.6762 12.0329 19.1386 12 18.512 12H15.488C14.8614 12 14.3238 12.0329 13.8746 12.1328C13.4197 12.2339 13.0253 12.4101 12.7177 12.7177C12.4101 13.0253 12.2339 13.4197 12.1328 13.8746C12.0329 14.3238 12 14.8614 12 15.488V18.512C12 19.1386 12.0329 19.6762 12.1328 20.1254C12.2339 20.5803 12.4101 20.9747 12.7177 21.2823C13.0253 21.5899 13.4197 21.7662 13.8746 21.8673C14.3238 21.9671 14.8614 22 15.488 22H18.512C19.1386 22 19.6762 21.9671 20.1254 21.8673C20.5803 21.7662 20.9747 21.5899 21.2823 21.2823C21.5899 20.9747 21.7662 20.5803 21.8673 20.1254C21.9671 19.6762 22 19.1386 22 18.512V17.8471C22.0002 17.8393 22.0002 17.8316 22 17.8239ZM13.1089 14.0915C13.033 14.4332 13 14.8843 13 15.488V16.548C13.3599 16.2019 13.695 15.9187 14.0195 15.7123C14.4126 15.4621 14.8161 15.3079 15.2511 15.3079C15.6861 15.3079 16.0896 15.4621 16.4828 15.7123C16.871 15.9593 17.2745 16.3162 17.7175 16.7593L18.5301 17.5719C19.0218 17.1666 19.5039 16.8868 20.0228 16.8221C20.3646 16.7795 20.6869 16.8337 21 16.9599V15.488C21 14.8843 20.967 14.4332 20.8911 14.0915C20.8164 13.7555 20.707 13.5566 20.5752 13.4248C20.4433 13.293 20.2445 13.1836 19.9085 13.1089C19.5668 13.033 19.1158 13 18.512 13H15.488C14.8843 13 14.4332 13.033 14.0915 13.1089C13.7555 13.1836 13.5566 13.293 13.4248 13.4248C13.293 13.5566 13.1836 13.7555 13.1089 14.0915Z" fill="#34A853"/>
</svg>
