<svg width="25" height="25" viewBox="0 0 25 25" fill="none" xmlns="http://www.w3.org/2000/svg">
<g clip-path="url(#clip0_173_5)">
<path d="M10.1562 1.5625C8.91347 1.56389 7.72199 2.05819 6.84322 2.93697C5.96444 3.81574 5.47014 5.00722 5.46875 6.25H7.03125C7.03125 5.4212 7.36049 4.62634 7.94654 4.04029C8.53259 3.45424 9.32745 3.125 10.1562 3.125C10.9851 3.125 11.7799 3.45424 12.366 4.04029C12.952 4.62634 13.2812 5.4212 13.2812 6.25H14.8438C14.8424 5.00722 14.3481 3.81574 13.4693 2.93697C12.5905 2.05819 11.399 1.56389 10.1562 1.5625Z" fill="#17BDD3"/>
<path d="M16.4063 23.4375H12.9381C12.1541 23.4375 11.3987 23.1429 10.8218 22.612L3.63391 15.9977C3.46608 15.8443 3.33372 15.6561 3.24608 15.4463C3.15843 15.2364 3.11759 15.01 3.12642 14.7828C3.13525 14.5555 3.19353 14.333 3.29719 14.1306C3.40086 13.9282 3.54741 13.7508 3.72665 13.6109C4.03355 13.3861 4.40975 13.2764 4.78938 13.3011C5.169 13.3258 5.52784 13.4832 5.80305 13.7459L8.59383 16.2945V6.25C8.59383 5.8356 8.75845 5.43817 9.05148 5.14515C9.3445 4.85212 9.74193 4.6875 10.1563 4.6875C10.5707 4.6875 10.9682 4.85212 11.2612 5.14515C11.5542 5.43817 11.7188 5.8356 11.7188 6.25V11.7188C11.7188 11.3043 11.8835 10.9069 12.1765 10.6139C12.4695 10.3209 12.8669 10.1562 13.2813 10.1562C13.6957 10.1562 14.0932 10.3209 14.3862 10.6139C14.6792 10.9069 14.8438 11.3043 14.8438 11.7188V12.5C14.8438 12.0856 15.0085 11.6882 15.3015 11.3951C15.5945 11.1021 15.9919 10.9375 16.4063 10.9375C16.8207 10.9375 17.2182 11.1021 17.5112 11.3951C17.8042 11.6882 17.9688 12.0856 17.9688 12.5V13.2812C17.9688 12.8668 18.1335 12.4694 18.4265 12.1764C18.7195 11.8834 19.1169 11.7188 19.5313 11.7188C19.9457 11.7188 20.3432 11.8834 20.6362 12.1764C20.9292 12.4694 21.0938 12.8668 21.0938 13.2812V18.75C21.0938 19.9932 20.6 21.1855 19.7209 22.0646C18.8418 22.9436 17.6495 23.4375 16.4063 23.4375Z" fill="#17BDD3"/>
</g>
<defs>
<clipPath id="clip0_173_5">
<rect width="25" height="25" fill="white"/>
</clipPath>
</defs>
</svg>
