<svg width="30" height="30" viewBox="0 0 30 30" fill="none" xmlns="http://www.w3.org/2000/svg">
<path fill-rule="evenodd" clip-rule="evenodd" d="M28.125 21.5625C28.125 22.5975 27.285 23.4375 26.25 23.4375H24.375C23.9569 21.8222 22.3706 20.625 20.625 20.625H9.375C7.62937 20.625 6.04313 21.8222 5.625 23.4375H3.75C2.715 23.4375 1.875 22.5975 1.875 21.5625V19.6875C1.875 18.6525 2.715 17.8125 3.75 17.8125H26.25C27.285 17.8125 28.125 18.6525 28.125 19.6875V21.5625ZM26.25 15.9375H3.75C1.67906 15.9375 0 17.6166 0 19.6875V21.5625C0 23.6334 1.67906 25.3125 3.75 25.3125H5.625C6.04313 26.9278 7.62937 28.125 9.375 28.125H20.625C22.3706 28.125 23.9569 26.9278 24.375 25.3125H26.25C28.3209 25.3125 30 23.6334 30 21.5625V19.6875C30 17.6166 28.3209 15.9375 26.25 15.9375ZM24.375 5.625C24.375 3.55406 22.6959 1.875 20.625 1.875H9.375C7.30406 1.875 5.625 3.55406 5.625 5.625V14.0625H24.375V5.625Z" fill="#17BDD3"/>
</svg>
