<svg width="22" height="25" viewBox="0 0 22 25" fill="none" xmlns="http://www.w3.org/2000/svg">
<path d="M3.78541 3.67979H17.8977V21.3202H3.78541V3.67979ZM21.0598 16.5449C21.7486 17.2338 21.7486 18.3504 21.0598 19.0402L20.7573 19.3427C20.6205 19.4794 20.5438 19.6647 20.5438 19.8587V21.3202C20.5438 22.7817 19.3593 23.9663 17.8977 23.9663H16.4362C16.2422 23.9663 16.057 24.043 15.9194 24.1806L15.6168 24.4831C15.272 24.828 14.8213 25 14.3697 25C13.9181 25 13.4665 24.828 13.1225 24.4831C12.9796 24.3402 12.7926 24.2688 12.6056 24.2688C12.4186 24.2688 12.2316 24.3402 12.0888 24.4831C11.7439 24.828 11.2932 25 10.8416 25C10.39 25 9.93839 24.828 9.5944 24.4831C9.45152 24.3402 9.26453 24.2688 9.07754 24.2688C8.89055 24.2688 8.70356 24.3402 8.56067 24.4831C8.2158 24.828 7.76509 25 7.3135 25C6.8619 25 6.41031 24.828 6.06632 24.4831L5.76379 24.1806C5.62619 24.043 5.44097 23.9663 5.24692 23.9663H3.78541C2.3239 23.9663 1.13935 22.7817 1.13935 21.3202V19.8587C1.13935 19.6647 1.06261 19.4794 0.925019 19.3418L0.622486 19.0393C-0.066372 18.3504 -0.066372 17.2338 0.622486 16.5449L0.767138 16.4003C0.989407 16.178 1.04497 15.8384 0.903851 15.5571L0.558981 14.8665C-0.186327 13.3767 -0.186327 11.6233 0.558981 10.1335L0.903851 9.44291C1.04409 9.16155 0.989407 8.82197 0.767138 8.5997L0.623368 8.45593C-0.0654901 7.76708 -0.0654901 6.64956 0.623368 5.9607L0.925901 5.65816C1.06261 5.52145 1.13935 5.33534 1.13935 5.1413V3.67979C1.13935 2.21828 2.3239 1.03373 3.78541 1.03373H5.24692C5.44097 1.03373 5.62619 0.956993 5.76379 0.819397L6.06632 0.516864C6.41031 0.172876 6.8619 0 7.3135 0C7.76509 0 8.21669 0.171994 8.56067 0.516864C8.70356 0.659752 8.89055 0.731195 9.07754 0.731195C9.26453 0.731195 9.45152 0.659752 9.5944 0.516864C9.93839 0.172876 10.39 0 10.8416 0C11.2932 0 11.7448 0.171994 12.0888 0.516864C12.2316 0.659752 12.4186 0.731195 12.6056 0.731195C12.7926 0.731195 12.9796 0.659752 13.1225 0.516864C13.4665 0.172876 13.9181 0 14.3697 0C14.8213 0 15.2729 0.171994 15.6168 0.516864L15.9194 0.819397C16.057 0.956993 16.2422 1.03373 16.4362 1.03373H17.8977C19.3593 1.03373 20.5438 2.21828 20.5438 3.67979V5.1413C20.5438 5.33534 20.6205 5.52057 20.7581 5.65816L21.0607 5.9607C21.7495 6.64956 21.7495 7.76619 21.0607 8.45505L20.916 8.5997C20.6938 8.82197 20.6382 9.16155 20.7793 9.44291L21.1242 10.1335C21.8686 11.6233 21.8695 13.3767 21.1242 14.8665L20.7784 15.5571C20.6382 15.8384 20.6929 16.178 20.9151 16.4003L21.0598 16.5449ZM18.7798 3.67979C18.7798 3.19292 18.3846 2.79777 17.8977 2.79777H3.78541C3.29854 2.79777 2.90339 3.19292 2.90339 3.67979V21.3202C2.90339 21.8071 3.29854 22.2022 3.78541 22.2022H17.8977C18.3846 22.2022 18.7798 21.8071 18.7798 21.3202V3.67979Z" fill="#17BDD3"/>
</svg>
