<svg width="18" height="25" viewBox="0 0 18 25" fill="none" xmlns="http://www.w3.org/2000/svg">
<path fill-rule="evenodd" clip-rule="evenodd" d="M6.16772 3.05895e-06C6.19505 3.05895e-06 6.22249 3.05895e-06 6.25 3.05895e-06H11.3323C12.4404 -5.9441e-05 13.3951 -0.000109468 14.1598 0.102691C14.9791 0.212853 15.7646 0.461278 16.4016 1.09835C17.0388 1.73544 17.2871 2.52088 17.3974 3.34027C17.5001 4.10484 17.5001 5.05961 17.5 6.16771V18.8323C17.5001 19.9404 17.5001 20.8951 17.3974 21.6598C17.2871 22.4791 17.0388 23.2646 16.4016 23.9016C15.7646 24.5387 14.9791 24.7871 14.1598 24.8974C13.3951 25.0001 12.4404 25.0001 11.3323 25H6.16775C5.05963 25.0001 4.10485 25.0001 3.34027 24.8974C2.52088 24.7871 1.73544 24.5387 1.09835 23.9016C0.461278 23.2646 0.212853 22.4791 0.102691 21.6598C-0.000109468 20.8951 -5.94411e-05 19.9404 3.05895e-06 18.8323V6.25C3.05895e-06 6.22249 3.05895e-06 6.19505 3.05895e-06 6.16771C-5.94411e-05 5.05961 -0.000109468 4.10484 0.102691 3.34027C0.212853 2.52088 0.461278 1.73544 1.09835 1.09835C1.73544 0.461278 2.52088 0.212853 3.34027 0.102691C4.10484 -0.000109468 5.05962 -5.9441e-05 6.16772 3.05895e-06ZM6.875 20C6.875 19.3096 7.43463 18.75 8.125 18.75H9.375C10.0654 18.75 10.625 19.3096 10.625 20C10.625 20.6904 10.0654 21.25 9.375 21.25H8.125C7.43463 21.25 6.875 20.6904 6.875 20Z" fill="#17BDD3"/>
</svg>
