<svg width="32" height="28" viewBox="0 0 32 28" fill="none" xmlns="http://www.w3.org/2000/svg">
<path d="M28.975 20.5625C28.975 21.5147 28.2022 22.2875 27.25 22.2875H25.3562C24.8854 20.6665 23.4008 19.475 21.625 19.475H10.375C8.59924 19.475 7.11465 20.6665 6.64375 22.2875H4.75C3.79784 22.2875 3.025 21.5147 3.025 20.5625V18.6875C3.025 17.7353 3.79784 16.9625 4.75 16.9625H27.25C28.2022 16.9625 28.975 17.7353 28.975 18.6875V20.5625ZM21.625 25.1H10.375C9.42284 25.1 8.65 24.3272 8.65 23.375C8.65 22.4228 9.42284 21.65 10.375 21.65H21.625C22.5772 21.65 23.35 22.4228 23.35 23.375C23.35 24.3272 22.5772 25.1 21.625 25.1ZM8.65 4.625C8.65 3.67284 9.42284 2.9 10.375 2.9H21.625C22.5772 2.9 23.35 3.67284 23.35 4.625V14.7875H8.65V4.625ZM27.25 14.7875H25.525V4.625C25.525 2.47122 23.7788 0.725 21.625 0.725H10.375C8.22122 0.725 6.475 2.47122 6.475 4.625V14.7875H4.75C2.59622 14.7875 0.85 16.5337 0.85 18.6875V20.5625C0.85 22.7163 2.59622 24.4625 4.75 24.4625H6.64374C7.11462 26.0844 8.59926 27.275 10.375 27.275H21.625C23.4007 27.275 24.8854 26.0844 25.3563 24.4625H27.25C29.4038 24.4625 31.15 22.7163 31.15 20.5625V18.6875C31.15 16.5337 29.4038 14.7875 27.25 14.7875Z" fill="white" stroke="#FEFEFE" stroke-width="0.3"/>
</svg>
