<svg width="30" height="30" viewBox="0 0 30 30" fill="none" xmlns="http://www.w3.org/2000/svg">
<path d="M29.9397 27.3824L24.7381 12.8388C24.3728 11.882 23.5551 11.2905 22.6157 11.2905C21.6763 11.2905 20.876 11.882 20.4759 12.8736L15.2917 27.3824C15.0482 28.0609 15.3961 28.8089 16.0746 29.0525C16.753 29.2961 17.5011 28.9481 17.7446 28.2696L18.8232 25.26H26.3908L27.4694 28.2696C27.6608 28.8089 28.1653 29.1395 28.7046 29.1395C28.8437 29.1395 29.0003 29.1221 29.1395 29.0699C29.818 28.8263 30.1659 28.0783 29.9223 27.3998L29.9397 27.3824ZM19.7801 22.6331L22.6331 14.648L25.4862 22.6331H19.7801ZM15.3439 7.34141C11.4122 13.552 7.86331 17.3097 3.54893 19.8148C3.34017 19.9366 3.11401 19.9888 2.90525 19.9888C2.45294 19.9888 2.01802 19.7627 1.77446 19.3451C1.40913 18.7189 1.61789 17.9186 2.24418 17.5707C5.89747 15.4483 8.88972 12.4039 12.2473 7.35881H1.30475C0.591488 7.35881 0 6.76732 0 6.05405C0 5.34079 0.591488 4.7493 1.30475 4.7493H7.82852V1.30475C7.82852 0.591488 8.42001 0 9.13327 0C9.84652 0 10.438 0.591488 10.438 1.30475V4.7493H16.9618C17.6751 4.7493 18.2665 5.34079 18.2665 6.05405C18.2665 6.76732 17.6751 7.35881 16.9618 7.35881H15.3265L15.3439 7.34141ZM15.4135 19.9888C15.1873 19.9888 14.9612 19.9366 14.7524 19.8148C13.6216 19.1538 12.5256 18.4231 11.4992 17.6577C10.9251 17.2227 10.8034 16.4051 11.2383 15.831C11.6732 15.2569 12.4908 15.1351 13.0649 15.5701C14.0043 16.2833 15.0308 16.9444 16.0746 17.5533C16.7008 17.9186 16.9096 18.7189 16.5443 19.3451C16.3007 19.7627 15.8658 19.9888 15.4135 19.9888Z" fill="white"/>
</svg>
