<svg width="26" height="26" viewBox="0 0 26 26" fill="none" xmlns="http://www.w3.org/2000/svg">
<path d="M15.75 20.125C15.75 18.3694 15.75 17.4916 16.1714 16.8611C16.3538 16.5881 16.5881 16.3538 16.8611 16.1714C17.4916 15.75 18.3694 15.75 20.125 15.75C21.8806 15.75 22.7584 15.75 23.3889 16.1714C23.6619 16.3538 23.8963 16.5881 24.0786 16.8611C24.5 17.4916 24.5 18.3694 24.5 20.125C24.5 21.8806 24.5 22.7584 24.0786 23.3889C23.8963 23.6619 23.6619 23.8963 23.3889 24.0786C22.7584 24.5 21.8806 24.5 20.125 24.5C18.3694 24.5 17.4916 24.5 16.8611 24.0786C16.5881 23.8963 16.3538 23.6619 16.1714 23.3889C15.75 22.7584 15.75 21.8806 15.75 20.125Z" stroke="white" stroke-width="2.5"/>
<path d="M2 20.125C2 18.3694 2 17.4916 2.42132 16.8611C2.60372 16.5881 2.8381 16.3538 3.11107 16.1714C3.74164 15.75 4.61943 15.75 6.375 15.75C8.13057 15.75 9.00836 15.75 9.63893 16.1714C9.9119 16.3538 10.1463 16.5881 10.3287 16.8611C10.75 17.4916 10.75 18.3694 10.75 20.125C10.75 21.8806 10.75 22.7584 10.3287 23.3889C10.1463 23.6619 9.9119 23.8963 9.63893 24.0786C9.00836 24.5 8.13057 24.5 6.375 24.5C4.61943 24.5 3.74164 24.5 3.11107 24.0786C2.8381 23.8963 2.60372 23.6619 2.42132 23.3889C2 22.7584 2 21.8806 2 20.125Z" stroke="white" stroke-width="2.5"/>
<path d="M2 6.375C2 4.61943 2 3.74164 2.42132 3.11107C2.60372 2.8381 2.8381 2.60372 3.11107 2.42132C3.74164 2 4.61943 2 6.375 2C8.13057 2 9.00836 2 9.63893 2.42132C9.9119 2.60372 10.1463 2.8381 10.3287 3.11107C10.75 3.74164 10.75 4.61943 10.75 6.375C10.75 8.13057 10.75 9.00836 10.3287 9.63893C10.1463 9.9119 9.9119 10.1463 9.63893 10.3287C9.00836 10.75 8.13057 10.75 6.375 10.75C4.61943 10.75 3.74164 10.75 3.11107 10.3287C2.8381 10.1463 2.60372 9.9119 2.42132 9.63893C2 9.00836 2 8.13057 2 6.375Z" stroke="white" stroke-width="2.5"/>
<path d="M15.75 6.375H24.5" stroke="white" stroke-width="2.5" stroke-linecap="round" stroke-linejoin="round"/>
<path d="M20.125 2V10.75" stroke="white" stroke-width="2.5" stroke-linecap="round" stroke-linejoin="round"/>
</svg>
