<svg width="28" height="30" viewBox="0 0 28 30" fill="none" xmlns="http://www.w3.org/2000/svg">
<path fill-rule="evenodd" clip-rule="evenodd" d="M21.9231 27.6923C20.0112 27.6923 18.4615 26.1427 18.4615 24.2308C18.4615 22.3188 20.0112 20.7692 21.9231 20.7692C23.835 20.7692 25.3846 22.3188 25.3846 24.2308C25.3846 26.1427 23.835 27.6923 21.9231 27.6923ZM5.76923 18.4615C3.85731 18.4615 2.30769 16.9119 2.30769 15C2.30769 13.0892 3.85731 11.5385 5.76923 11.5385C7.68115 11.5385 9.23077 13.0892 9.23077 15C9.23077 16.9119 7.68115 18.4615 5.76923 18.4615ZM21.9231 2.30769C23.835 2.30769 25.3846 3.85731 25.3846 5.76923C25.3846 7.68115 23.835 9.23077 21.9231 9.23077C20.0112 9.23077 18.4615 7.68115 18.4615 5.76923C18.4615 3.85731 20.0112 2.30769 21.9231 2.30769ZM21.9231 18.4615C19.8808 18.4615 18.0981 19.5289 17.0723 21.1292L10.8935 17.5985C11.2927 16.8139 11.5385 15.9392 11.5385 15C11.5385 14.4196 11.4266 13.8704 11.2673 13.3419L17.6954 9.66924C18.7488 10.8115 20.2465 11.5385 21.9231 11.5385C25.11 11.5385 27.6923 8.95615 27.6923 5.76923C27.6923 2.58231 25.11 0 21.9231 0C18.7362 0 16.1538 2.58231 16.1538 5.76923C16.1538 6.34962 16.2658 6.89883 16.425 7.42845L9.99692 11.1C8.94346 9.95884 7.44577 9.23077 5.76923 9.23077C2.58231 9.23077 0 11.8131 0 15C0 18.1869 2.58231 20.7692 5.76923 20.7692C7.08462 20.7692 8.28345 20.3123 9.25383 19.5715L9.23077 19.6154L16.2173 23.6077C16.1942 23.8154 16.1538 24.0162 16.1538 24.2308C16.1538 27.4177 18.7362 30 21.9231 30C25.11 30 27.6923 27.4177 27.6923 24.2308C27.6923 21.0438 25.11 18.4615 21.9231 18.4615Z" fill="white"/>
</svg>
