<svg width="30" height="30" viewBox="0 0 30 30" fill="none" xmlns="http://www.w3.org/2000/svg">
<path fill-rule="evenodd" clip-rule="evenodd" d="M26.7001 12.27C26.2351 7.5 23.4151 0 14.7001 0C5.98507 0 3.16507 7.5 2.70007 12.27C1.06884 12.8891 -0.00714681 14.4553 3.57401e-05 16.2V18.3C3.57401e-05 20.6196 1.88048 22.5 4.20007 22.5C6.51967 22.5 8.40007 20.6196 8.40007 18.3V16.2C8.39253 14.4929 7.35606 12.9589 5.77507 12.315C6.07507 9.555 7.54507 3 14.7001 3C21.8551 3 23.3101 9.555 23.6101 12.315C22.0323 12.9603 21.001 14.4953 21.0001 16.2V18.3C21.0066 19.9125 21.9325 21.3799 23.3851 22.08C22.7551 23.265 21.1501 24.87 17.2051 25.35C16.4165 24.1525 14.8908 23.6805 13.5637 24.2233C12.2367 24.7662 11.4792 26.1722 11.756 27.579C12.0327 28.9859 13.2663 30 14.7001 30C15.8331 29.9937 16.8659 29.3497 17.3701 28.335C23.8051 27.6 25.8601 24.285 26.5051 22.335C28.25 21.7698 29.4236 20.1341 29.4001 18.3V16.2C29.4073 14.4553 28.3313 12.8891 26.7001 12.27ZM5.40007 18.3C5.40007 18.9627 4.86281 19.5 4.20007 19.5C3.53733 19.5 3.00007 18.9627 3.00007 18.3V16.2C3.00007 15.7713 3.22879 15.3751 3.60007 15.1608C3.97135 14.9464 4.42879 14.9464 4.80007 15.1608C5.17135 15.3751 5.40007 15.7713 5.40007 16.2V18.3ZM24.0001 16.2C24.0001 15.5373 24.5373 15 25.2001 15C25.8628 15 26.4001 15.5373 26.4001 16.2V18.3C26.4001 18.9627 25.8628 19.5 25.2001 19.5C24.5373 19.5 24.0001 18.9627 24.0001 18.3V16.2Z" fill="white"/>
</svg>
