<svg width="30" height="34" viewBox="0 0 30 34" fill="none" xmlns="http://www.w3.org/2000/svg">
<path d="M25.3333 22V32M25.3333 32L22 28.6667M25.3333 32L28.6667 28.6667M15.3333 2H7.33333C5.4665 2 4.53307 2 3.82003 2.36332C3.19282 2.68288 2.68288 3.19282 2.36332 3.82003C2 4.53307 2 5.4665 2 7.33333V26.6667C2 28.5335 2 29.467 2.36332 30.18C2.68288 30.8072 3.19282 31.3172 3.82003 31.6367C4.53307 32 5.4665 32 7.33333 32H17M15.3333 2L25.3333 12M15.3333 2V9.33333C15.3333 10.2667 15.3333 10.7335 15.515 11.09C15.6748 11.4036 15.9297 11.6586 16.2433 11.8184C16.5998 12 17.0665 12 18 12H25.3333M25.3333 12V15.3333M8.66667 25.3333H15.3333M8.66667 18.6667H18.6667M8.66667 12H10.3333" stroke="white" stroke-width="2.5" stroke-linecap="round" stroke-linejoin="round"/>
</svg>
