<svg width="30" height="29" viewBox="0 0 30 29" fill="none" xmlns="http://www.w3.org/2000/svg">
<path d="M27.7491 3.16688C26.928 2.17345 25.8969 1.37449 24.7299 0.827562C23.5629 0.280631 22.2891 -0.000659933 21.0003 0.00395422C18.7952 -0.062815 16.6483 0.718109 15.0014 2.18606C13.3545 0.718109 11.2076 -0.062815 9.00249 0.00395422C7.71369 -0.000659933 6.43992 0.280631 5.27292 0.827562C4.10593 1.37449 3.07477 2.17345 2.25372 3.16688C0.82448 4.90056 -0.670747 8.03949 0.320572 13.1551C1.90278 21.3241 13.7671 28.0278 14.268 28.3023C14.4913 28.4268 14.7427 28.4921 14.9984 28.4921C15.2541 28.4921 15.5055 28.4268 15.7288 28.3023C16.2327 28.0218 28.097 21.3181 29.6762 13.1551C30.6735 8.03949 29.1783 4.90056 27.7491 3.16688ZM26.7382 12.5852C25.6195 18.3606 17.4879 23.7326 15.0014 25.2593C11.498 23.1447 4.29035 17.8357 3.27203 12.5852C2.50267 8.61688 3.55548 6.3118 4.57529 5.07603C5.1146 4.42531 5.79124 3.90202 6.55667 3.54368C7.32209 3.18534 8.15734 3.00084 9.00249 3.00341C9.90516 2.93571 10.81 3.10307 11.6287 3.48918C12.4474 3.87528 13.1522 4.46695 13.6741 5.2065C13.8029 5.44336 13.9927 5.64136 14.224 5.77988C14.4553 5.91839 14.7195 5.99234 14.989 5.99402C15.2586 5.99571 15.5237 5.92507 15.7567 5.78945C15.9896 5.65384 16.182 5.45823 16.3137 5.223C16.8346 4.47769 17.5408 3.88101 18.3627 3.49179C19.1845 3.10257 20.0936 2.93425 21.0003 3.00341C21.8472 2.99928 22.6845 3.18304 23.4519 3.54143C24.2192 3.89983 24.8975 4.42394 25.438 5.07603C26.4548 6.3118 27.5076 8.61688 26.7382 12.5852Z" fill="white"/>
</svg>
