<svg width="28" height="30" viewBox="0 0 28 30" fill="none" xmlns="http://www.w3.org/2000/svg">
<path d="M26.468 5.5731L14.1928 0.117469C14.0185 0.0400181 13.8298 0 13.6391 0C13.4483 0 13.2597 0.0400181 13.0853 0.117469L0.810162 5.5731C0.568997 5.68024 0.364093 5.85504 0.220291 6.07632C0.0764894 6.29759 -3.34823e-05 6.55582 1.099e-08 6.81971V7.77445C0.00138366 12.2735 1.20524 16.6905 3.48694 20.568C5.76864 24.4456 9.04525 27.6429 12.9776 29.8288C13.18 29.9411 13.4076 30 13.6391 30C13.8705 30 14.0982 29.9411 14.3006 29.8288C18.2329 27.6429 21.5095 24.4456 23.7912 20.568C26.0729 16.6905 27.2768 12.2735 27.2782 7.77445V6.81971C27.2782 6.55582 27.2017 6.29759 27.0579 6.07632C26.9141 5.85504 26.7092 5.68024 26.468 5.5731ZM24.5504 7.77445C24.5492 11.6573 23.5438 15.4738 21.6319 18.8533C19.72 22.2328 16.9666 25.0604 13.6391 27.0615C10.3116 25.0604 7.55817 22.2328 5.64628 18.8533C3.73439 15.4738 2.72902 11.6573 2.72782 7.77445V7.70625L13.6391 2.8562L24.5504 7.70625V7.77445ZM12.2752 12.2753H15.003V23.1866H12.2752V12.2753ZM12.2752 6.81971H15.003V9.54753H12.2752V6.81971Z" fill="white"/>
</svg>
